<svg width="100%" height="100%" id="svg" viewBox="0 0 1440 390" xmlns="http://www.w3.org/2000/svg" class="transition duration-300 ease-in-out delay-150"><defs><linearGradient id="gradient" x1="0%" y1="50%" x2="100%" y2="50%"><stop offset="5%" stop-color="#f78da7"></stop><stop offset="95%" stop-color="#8ED1FC"></stop></linearGradient></defs><path d="M 0,400 C 0,400 0,100 0,100 C 34.941207928190835,88.00347075271064 69.88241585638167,76.00694150542128 114,73 C 158.11758414361833,69.99305849457872 211.41154450266419,75.97570473102552 258,88 C 304.5884554973358,100.02429526897448 344.4714061329617,118.09023957047664 389,122 C 433.5285938670383,125.90976042952336 482.70283096548906,115.6633369870679 527,112 C 571.297169034511,108.3366630129321 610.7172700050822,111.25641248125174 652,107 C 693.2827299949178,102.74358751874826 736.4280890141822,91.31101308792515 782,82 C 827.5719109858178,72.68898691207485 875.5703739381887,65.49953516704768 917,63 C 958.4296260618113,60.50046483295232 993.2904152330627,62.690846243884124 1043,66 C 1092.7095847669373,69.30915375611588 1157.26796512956,73.73707985741581 1200,80 C 1242.73203487044,86.26292014258419 1263.6377242486972,94.36083432645262 1300,98 C 1336.3622757513028,101.63916567354738 1388.1811378756515,100.81958283677369 1440,100 C 1440,100 1440,400 1440,400 Z" stroke="none" stroke-width="0" fill="url(#gradient)" fill-opacity="0.4" class="transition-all duration-300 ease-in-out delay-150 path-0"></path><defs><linearGradient id="gradient" x1="0%" y1="50%" x2="100%" y2="50%"><stop offset="5%" stop-color="#f78da7"></stop><stop offset="95%" stop-color="#8ED1FC"></stop></linearGradient></defs><path d="M 0,400 C 0,400 0,200 0,200 C 55.103398327309705,201.50317237422507 110.20679665461941,203.00634474845012 153,206 C 195.7932033453806,208.99365525154988 226.27621170883214,213.47779338042463 264,208 C 301.72378829116786,202.52220661957537 346.6883565100519,187.08248172985148 390,185 C 433.3116434899481,182.91751827014852 474.9703622509602,194.19227970016948 515,201 C 555.0296377490398,207.80772029983052 593.4301944861072,210.14839946947066 644,212 C 694.5698055138928,213.85160053052934 757.3088598046108,215.2141224219479 797,213 C 836.6911401953892,210.7858775780521 853.3343662954495,204.99511084273772 893,199 C 932.6656337045505,193.00488915726228 995.3536750135909,186.80543420710123 1046,189 C 1096.6463249864091,191.19456579289877 1135.250933650187,201.78315232885734 1177,200 C 1218.749066349813,198.21684767114266 1263.642590385661,184.06195647746932 1308,182 C 1352.357409614339,179.93804352253068 1396.1787048071697,189.96902176126534 1440,200 C 1440,200 1440,400 1440,400 Z" stroke="none" stroke-width="0" fill="url(#gradient)" fill-opacity="0.53" class="transition-all duration-300 ease-in-out delay-150 path-1"></path><defs><linearGradient id="gradient" x1="0%" y1="50%" x2="100%" y2="50%"><stop offset="5%" stop-color="#f78da7"></stop><stop offset="95%" stop-color="#8ED1FC"></stop></linearGradient></defs><path d="M 0,400 C 0,400 0,300 0,300 C 52.32982775504277,315.40266929216125 104.65965551008554,330.80533858432244 148,328 C 191.34034448991446,325.19466141567756 225.69120571470052,304.18131495487137 269,292 C 312.3087942852995,279.81868504512863 364.5755216311121,276.46940159619214 407,288 C 449.4244783688879,299.53059840380786 482.0067077608511,325.9410786603603 521,316 C 559.9932922391489,306.0589213396397 605.397647325484,259.76628376236675 655,263 C 704.602352674516,266.23371623763325 758.4027029372131,318.99378629017264 805,323 C 851.5972970627869,327.00621370982736 890.9915409256638,282.25857107694276 928,270 C 965.0084590743362,257.74142892305724 999.6311333601313,277.97192940205656 1035,287 C 1070.3688666398687,296.02807059794344 1106.4839256338107,293.85371131483095 1154,297 C 1201.5160743661893,300.14628868516905 1260.4331641046253,308.6132253386197 1310,310 C 1359.5668358953747,311.3867746613803 1399.7834179476872,305.69338733069014 1440,300 C 1440,300 1440,400 1440,400 Z" stroke="none" stroke-width="0" fill="url(#gradient)" fill-opacity="1" class="transition-all duration-300 ease-in-out delay-150 path-2"></path></svg>
